<svg version="1.1" id="Layer_1" xmlns="http://www.w3.org/2000/svg" xmlns:xlink="http://www.w3.org/1999/xlink" x="0px" y="0px"
	 width="48.000000pt" height="48.000000pt" viewBox="0 0 80 80" enable-background="new 0 0 80 80" xml:space="preserve">
<path fill="#FFFFFF" opacity="1.000000" stroke="none"
	d="
M44.000000,81.000000
	C29.333334,81.000000 15.166667,81.000000 1.000000,81.000000
	C1.000000,54.333332 1.000000,27.666666 1.000000,1.000000
	C27.666666,1.000000 54.333332,1.000000 81.000000,1.000000
	C81.000000,27.666666 81.000000,54.333332 81.000000,81.000000
	C68.833336,81.000000 56.666668,81.000000 44.000000,81.000000
M47.298908,51.368179
	C39.058140,54.665268 34.189224,52.885387 29.726774,44.223049
	C29.744438,41.821228 29.762104,39.419403 30.106260,36.393887
	C34.884434,28.622799 38.317669,27.676823 49.096439,31.219334
	C50.733124,29.698126 52.402382,28.146637 54.062782,26.603386
	C45.055794,17.158476 30.241634,19.882614 22.952120,32.430229
	C20.237896,38.327930 20.144777,44.175472 23.556276,50.661270
	C30.630585,62.143700 44.215923,64.556046 54.672798,55.783112
	C59.754414,50.639172 60.912369,44.500637 59.633148,37.640938
	C53.259903,37.640938 47.258610,37.640938 41.346867,37.640938
	C41.346867,40.309296 41.346867,42.539268 41.346867,45.248459
	C44.757210,45.248459 47.817074,45.248459 52.072971,45.248459
	C50.306850,47.810638 49.159000,49.475864 47.298908,51.368179
z"/>
<path fill="#E9493C" opacity="1.000000" stroke="none"
	d="
M23.304647,31.878727
	C30.241634,19.882614 45.055794,17.158476 54.062782,26.603386
	C52.402382,28.146637 50.733124,29.698126 49.096439,31.219334
	C38.317669,27.676823 34.884434,28.622799 29.666759,36.531601
	C27.253057,35.072453 25.278852,33.475590 23.304647,31.878727
z"/>
<path fill="#3CAB59" opacity="1.000000" stroke="none"
	d="
M29.765400,44.958630
	C34.189224,52.885387 39.058140,54.665268 47.863129,51.498962
	C50.303753,53.112232 52.180153,54.594715 54.056553,56.077202
	C44.215923,64.556046 30.630585,62.143700 23.697525,50.082764
	C25.814316,47.989052 27.789858,46.473839 29.765400,44.958630
z"/>
<path fill="#498AF3" opacity="1.000000" stroke="none"
	d="
M54.364677,55.930157
	C52.180153,54.594715 50.303753,53.112232 48.219254,51.385418
	C49.159000,49.475864 50.306850,47.810638 52.072971,45.248459
	C47.817074,45.248459 44.757210,45.248459 41.346867,45.248459
	C41.346867,42.539268 41.346867,40.309296 41.346867,37.640938
	C47.258610,37.640938 53.259903,37.640938 59.633148,37.640938
	C60.912369,44.500637 59.754414,50.639172 54.364677,55.930157
z"/>
<path fill="#F8BC0C" opacity="1.000000" stroke="none"
	d="
M29.746086,44.590839
	C27.789858,46.473839 25.814316,47.989052 23.563183,49.732674
	C20.144777,44.175472 20.237896,38.327930 23.128384,32.154480
	C25.278852,33.475590 27.253057,35.072453 29.503513,36.843449
	C29.762104,39.419403 29.744438,41.821228 29.746086,44.590839
z"/>
</svg>
