<?xml version="1.0" standalone="no"?>
<!DOCTYPE svg PUBLIC "-//W3C//DTD SVG 20010904//EN"
 "http://www.w3.org/TR/2001/REC-SVG-20010904/DTD/svg10.dtd">
<svg version="1.0" xmlns="http://www.w3.org/2000/svg"
 width="2000.000000pt" height="1017.000000pt" viewBox="0 0 2000.000000 1017.000000"
 preserveAspectRatio="xMidYMid meet">

<g transform="translate(0.000000,1017.000000) scale(0.100000,-0.100000)"
fill="#000000" stroke="none">
<path d="M9639 8710 c-229 -39 -358 -294 -257 -509 15 -33 96 -120 290 -313
278 -277 302 -295 359 -276 14 5 147 129 296 276 288 284 303 303 324 415 26
142 -49 296 -178 364 -145 78 -294 61 -425 -49 l-48 -39 -47 39 c-65 54 -119
79 -194 92 -35 5 -66 9 -69 9 -3 -1 -26 -5 -51 -9z m134 -211 c12 -7 56 -44
98 -84 115 -112 151 -111 264 5 68 70 105 90 167 90 109 0 184 -123 134 -218
-8 -15 -109 -121 -225 -237 l-211 -210 -211 210 c-116 116 -217 222 -225 237
-36 69 -4 165 66 200 40 20 111 23 143 7z"/>
<path d="M8848 8102 c-9 -4 -251 -230 -539 -502 -287 -272 -547 -518 -576
-545 l-53 -51 0 -1391 0 -1391 31 -26 31 -26 514 0 514 0 0 -865 0 -865 75 0
75 0 0 109 c0 61 3 112 8 114 4 3 21 -13 37 -35 120 -160 377 -234 601 -174
198 53 356 210 415 414 26 88 28 270 4 362 -48 188 -182 338 -360 405 -225 85
-473 37 -624 -120 -33 -34 -63 -60 -66 -57 -3 3 -5 164 -5 359 l0 353 1664 0
1664 0 31 26 31 26 0 1389 0 1389 -32 34 c-18 19 -249 238 -513 487 -264 249
-510 481 -546 515 -68 65 -101 81 -144 70 -13 -3 -262 -231 -552 -506 -290
-275 -530 -500 -533 -500 -3 0 -242 224 -532 499 -289 274 -533 501 -543 505
-21 8 -55 7 -77 -2z m581 -742 l470 -445 0 -1017 1 -1018 -205 0 -205 0 0 543
c0 595 -2 612 -61 732 -126 256 -414 387 -693 315 -197 -50 -346 -186 -421
-385 l-30 -80 -3 -562 -3 -563 -199 0 -200 0 0 1018 0 1017 503 476 502 477
37 -32 c21 -17 249 -231 507 -476z m2286 -62 l405 -383 0 -1272 0 -1273 -200
0 -200 0 0 718 c0 695 -1 718 -20 749 -11 18 -32 36 -47 40 -15 5 -265 8 -555
8 l-527 0 -30 -29 -31 -30 0 -728 0 -728 -205 0 -205 0 1 1273 0 1272 506 478
505 477 99 -94 c55 -52 282 -267 504 -478z m-2665 -1045 c93 -43 152 -100 195
-186 l36 -72 -387 -3 c-213 -1 -389 0 -392 3 -11 10 44 111 83 154 91 100 191
143 320 138 65 -3 94 -9 145 -34z m240 -1178 l0 -705 -405 0 -405 0 0 705 0
705 405 0 405 0 0 -705z m2230 -50 l0 -655 -405 0 -405 0 0 655 0 655 405 0
405 0 0 -655z m-3240 -505 l0 -150 -200 0 -200 0 0 150 0 150 200 0 200 0 0
-150z m1620 0 l0 -150 -205 0 -205 0 0 150 0 150 205 0 205 0 0 -150z m-319
-1032 c337 -161 349 -683 20 -856 -224 -118 -516 -28 -620 190 -117 247 -31
547 190 658 83 42 120 50 235 46 92 -2 108 -6 175 -38z"/>
<path d="M11027 7090 c-160 -29 -304 -162 -351 -324 -70 -239 84 -504 325
-561 216 -50 423 46 516 241 120 251 -3 542 -264 628 -61 20 -164 27 -226 16z
m188 -220 c151 -64 193 -264 83 -395 -64 -76 -206 -103 -293 -58 -86 45 -144
138 -145 228 0 81 41 152 123 215 25 19 125 39 162 33 17 -3 48 -13 70 -23z"/>
<path d="M5015 4160 c-66 -27 -93 -112 -53 -170 84 -124 272 -13 203 120 -26
50 -95 73 -150 50z"/>
<path d="M7195 4158 c-3 -7 -4 -395 -3 -863 l3 -850 80 0 80 0 6 380 c4 311 8
389 21 427 51 152 160 242 325 268 201 33 371 -54 424 -216 22 -66 23 -85 27
-467 l4 -398 76 3 77 3 0 420 c0 463 -2 478 -66 591 -103 182 -350 264 -602
198 -90 -23 -154 -59 -224 -127 l-63 -60 0 351 0 352 -80 0 c-55 0 -82 -4 -85
-12z"/>
<path d="M12715 4158 c-3 -7 -4 -395 -3 -863 l3 -850 80 0 80 0 5 380 c6 409
8 424 63 518 75 127 242 200 412 181 136 -15 223 -72 277 -182 l33 -67 5 -415
5 -415 80 0 80 0 3 380 c3 420 -4 496 -54 601 -35 74 -122 162 -194 196 -62
30 -188 58 -252 58 -152 -2 -312 -64 -404 -157 l-54 -55 -2 349 -3 348 -78 3
c-56 2 -79 -1 -82 -10z"/>
<path d="M18150 3809 l0 -363 -52 56 c-91 95 -171 138 -306 164 -94 18 -135
18 -230 -1 -236 -47 -419 -224 -467 -451 -17 -82 -19 -222 -4 -296 46 -225
182 -381 396 -455 68 -23 93 -27 198 -26 103 0 130 3 194 26 92 32 169 84 230
155 l46 53 5 -113 5 -113 54 -3 c30 -2 65 -1 78 3 l23 5 -2 858 -3 857 -82 3
-83 3 0 -362z m-280 -308 c109 -42 208 -141 252 -251 27 -69 36 -237 18 -319
-18 -84 -75 -185 -134 -238 -134 -121 -340 -148 -512 -67 -205 97 -303 375
-218 616 45 128 160 235 294 273 77 21 227 14 300 -14z"/>
<path d="M1722 3258 l3 -813 80 0 80 0 3 648 c1 377 6 647 11 647 8 0 77 -85
480 -594 69 -87 224 -282 344 -433 l218 -274 67 3 67 3 3 813 2 812 -85 0 -85
0 0 -650 c0 -357 -4 -650 -8 -650 -5 0 -125 147 -268 326 -495 623 -595 750
-682 861 l-87 112 -73 0 -72 1 2 -812z"/>
<path d="M3920 3664 c-319 -70 -513 -371 -461 -716 32 -204 151 -365 335 -452
101 -48 164 -61 301 -60 104 0 132 4 209 28 91 30 179 81 230 135 l29 30 -31
39 c-53 66 -59 69 -90 39 -142 -135 -406 -166 -594 -71 -104 53 -205 184 -223
290 -4 22 -9 47 -12 56 -4 17 27 18 509 20 l513 3 -1 92 c-6 379 -344 647
-714 567z m322 -172 c45 -22 83 -50 118 -88 57 -64 80 -104 104 -183 30 -101
74 -91 -412 -91 -236 0 -431 3 -434 6 -10 9 20 122 46 172 51 99 127 164 241
205 40 14 73 17 160 14 99 -3 116 -6 177 -35z"/>
<path d="M5950 3661 c-123 -26 -220 -78 -306 -165 -120 -121 -171 -261 -161
-446 13 -258 166 -455 415 -533 54 -17 92 -21 197 -21 114 0 139 3 203 26 91
33 157 75 216 138 26 28 49 50 51 50 9 0 5 -195 -5 -258 -29 -178 -129 -280
-307 -313 -75 -14 -270 -5 -348 16 -68 19 -184 74 -233 112 -18 14 -35 23 -36
22 -21 -25 -76 -111 -76 -119 0 -5 19 -24 43 -41 164 -120 437 -174 677 -135
227 37 361 146 419 341 35 118 41 230 41 788 l0 537 -80 0 -80 0 0 -105 c0
-58 -2 -105 -4 -105 -3 0 -31 27 -62 61 -70 73 -182 131 -296 154 -98 19 -161
18 -268 -4z m270 -141 c82 -16 155 -54 219 -115 73 -70 105 -128 126 -234 16
-79 16 -90 1 -170 -20 -102 -51 -162 -117 -229 -92 -92 -195 -132 -340 -132
-206 0 -374 110 -436 285 -14 37 -18 80 -18 170 0 115 2 123 32 185 92 189
303 284 533 240z"/>
<path d="M10755 3673 c-185 -26 -364 -140 -449 -286 -105 -180 -113 -435 -19
-625 49 -99 151 -203 248 -254 113 -58 173 -73 310 -72 104 0 131 4 200 28
107 37 157 67 237 144 74 71 136 181 163 287 19 77 19 243 0 320 -39 154 -118
271 -240 355 -118 81 -302 123 -450 103z m280 -181 c140 -66 233 -196 255
-358 23 -175 -29 -336 -145 -443 -78 -72 -186 -111 -305 -111 -126 1 -229 42
-314 125 -91 91 -136 204 -136 347 0 146 42 260 130 349 97 97 191 131 347
125 88 -3 111 -8 168 -34z"/>
<path d="M12281 3664 c-128 -26 -235 -93 -293 -183 l-28 -45 0 112 0 112 -80
0 -80 0 0 -610 0 -610 79 0 79 0 4 368 c4 344 6 371 26 434 56 169 172 259
355 275 l68 6 -3 76 c-3 73 -4 76 -28 78 -14 1 -58 -5 -99 -13z"/>
<path d="M14638 3660 c-217 -45 -389 -205 -452 -418 -8 -30 -18 -93 -21 -140
-21 -302 150 -557 433 -645 88 -28 266 -29 361 -3 176 48 318 167 390 329 39
85 51 150 51 272 0 132 -12 190 -62 294 -78 164 -235 280 -427 315 -105 20
-164 19 -273 -4z m344 -173 c151 -76 225 -181 249 -355 49 -349 -219 -611
-553 -541 -160 34 -302 179 -337 347 -24 113 -10 242 37 342 50 107 176 211
290 240 20 5 83 8 139 6 95 -2 108 -5 175 -39z"/>
<path d="M16100 3661 c-262 -56 -438 -249 -472 -517 -35 -275 84 -518 312
-638 107 -56 169 -71 305 -70 102 1 132 5 201 27 195 64 353 233 398 427 20
83 20 246 1 328 -55 233 -230 398 -473 446 -103 20 -164 19 -272 -3z m335
-169 c140 -66 235 -199 255 -358 22 -179 -29 -336 -145 -443 -78 -72 -186
-111 -305 -111 -127 1 -227 41 -313 126 -94 94 -137 202 -137 349 0 142 44
259 130 346 97 97 191 131 347 125 88 -3 111 -8 168 -34z"/>
<path d="M4980 3050 l0 -611 78 3 77 3 3 608 2 607 -80 0 -80 0 0 -610z"/>
</g>
</svg>
